<?xml version="1.0" standalone="no"?>
<!DOCTYPE svg PUBLIC "-//W3C//DTD SVG 20010904//EN"
 "http://www.w3.org/TR/2001/REC-SVG-20010904/DTD/svg10.dtd">
<svg version="1.0" xmlns="http://www.w3.org/2000/svg"
 width="541.000000pt" height="710.000000pt" viewBox="0 0 541.000000 710.000000"
 preserveAspectRatio="xMidYMid meet">

<g transform="translate(0.000000,710.000000) scale(0.100000,-0.100000)"
fill="#000000" stroke="none">
<path d="M3000 5445 c0 -41 -47 -80 -150 -124 -36 -15 -146 -79 -215 -125 -79
-52 -153 -122 -175 -166 -10 -19 -27 -44 -39 -54 -31 -28 -69 -119 -76 -179
-6 -63 -17 -134 -45 -286 -11 -64 -20 -156 -20 -213 0 -84 3 -103 21 -127 16
-22 21 -44 22 -112 2 -80 1 -84 -19 -81 -24 3 -50 -23 -59 -60 -8 -32 1 -35
33 -12 50 35 51 29 51 -298 0 -281 2 -307 21 -363 11 -33 18 -70 15 -83 -4
-15 0 -24 10 -28 8 -4 15 -13 15 -21 0 -31 128 -224 201 -303 35 -37 59 -77
59 -96 0 -10 5 -14 15 -10 9 3 18 -1 22 -10 3 -8 18 -21 34 -30 16 -8 29 -21
29 -29 0 -8 8 -15 19 -15 10 0 24 -6 30 -14 7 -8 26 -18 42 -21 16 -4 29 -10
29 -15 0 -4 11 -11 25 -14 13 -3 37 -11 52 -17 15 -7 39 -13 52 -15 13 -2 28
-7 32 -11 7 -7 137 -2 244 10 47 5 113 32 129 51 6 8 33 26 60 41 27 14 58 38
69 51 19 25 104 142 142 198 80 116 152 253 191 364 16 47 21 52 48 52 17 0
26 4 20 8 -17 11 -22 35 -11 56 9 19 10 19 23 1 11 -14 17 -16 26 -7 8 8 4 14
-15 23 -15 7 -27 15 -27 19 0 15 22 77 45 125 36 77 46 118 35 129 -15 15 -28
-8 -36 -61 -3 -24 -10 -43 -14 -43 -10 0 -57 -117 -64 -160 -4 -23 -22 -53
-52 -85 -52 -57 -67 -81 -59 -95 9 -14 -8 -40 -36 -54 -13 -7 -24 -19 -23 -27
1 -11 -7 -14 -26 -11 -24 3 -29 0 -35 -28 -4 -17 -13 -34 -20 -37 -8 -2 -19
-20 -25 -38 -8 -24 -16 -32 -26 -28 -17 6 -37 -16 -62 -69 -9 -21 -22 -38 -27
-38 -13 0 -44 -40 -69 -87 -9 -18 -24 -33 -34 -33 -9 0 -22 -8 -29 -19 -8 -13
-19 -17 -40 -13 -15 3 -31 9 -34 15 -10 15 -29 -1 -29 -24 0 -18 -4 -20 -39
-14 -30 5 -40 3 -44 -9 -10 -24 -34 -19 -41 9 -7 28 -31 34 -40 10 -4 -10 -17
-14 -41 -13 -19 2 -35 6 -35 10 0 4 -14 6 -30 6 -19 -1 -38 7 -51 20 -21 23
-39 29 -39 12 0 -5 -4 -10 -10 -10 -5 0 -10 9 -10 19 0 11 -9 23 -20 26 -11 3
-20 13 -20 21 0 8 -4 12 -10 9 -5 -3 -10 1 -10 9 0 9 -5 16 -11 16 -5 0 -30 9
-53 20 -43 19 -44 21 -56 87 -6 37 -17 71 -23 75 -9 6 -9 12 1 28 8 14 9 20 1
20 -8 0 -8 4 -1 13 17 20 -11 39 -35 22 -10 -7 -34 -15 -53 -17 -31 -3 -35 0
-38 21 -2 13 2 34 8 47 14 26 7 54 -13 54 -11 0 -13 12 -9 50 3 32 1 50 -6 50
-6 0 -13 -4 -16 -9 -3 -5 -19 -11 -36 -13 -29 -4 -30 -3 -30 31 0 27 -3 32
-10 21 -5 -8 -10 -11 -10 -7 0 4 7 19 16 32 20 31 12 64 -11 45 -13 -11 -15
-6 -16 31 -1 24 0 49 1 54 12 46 11 55 -4 55 -8 0 -18 10 -20 23 -6 27 -18
164 -17 192 0 11 -9 53 -20 94 -26 93 -20 201 20 341 10 36 24 92 30 125 20
102 55 200 71 200 10 0 16 12 18 32 2 22 14 42 38 62 19 17 34 38 34 48 0 10
7 27 16 38 9 12 12 30 8 48 -3 16 -1 34 6 42 6 7 10 19 9 27 -4 24 17 61 63
109 43 45 285 75 399 49 108 -24 214 -61 285 -97 28 -14 33 -14 68 2 22 10 62
19 95 19 57 1 141 -20 141 -36 0 -4 17 -8 38 -8 21 0 48 -7 61 -16 13 -9 49
-24 80 -33 52 -16 58 -20 86 -73 17 -31 39 -66 50 -78 17 -18 21 -44 28 -168
5 -88 15 -165 25 -192 18 -50 21 -175 7 -332 -8 -99 -1 -123 22 -70 6 15 15
44 19 65 3 21 13 41 21 44 13 5 337 -1 1101 -23 194 -5 202 -5 202 14 0 17
-10 20 -77 26 -42 3 -129 6 -194 6 -84 0 -119 3 -122 13 -4 8 -8 8 -14 2 -5
-6 -53 -8 -128 -5 -66 4 -111 7 -100 9 64 8 610 -5 626 -15 5 -3 9 80 9 185
l0 190 -42 5 c-24 3 -122 8 -218 11 -351 11 -786 34 -880 46 -74 9 260 3 580
-11 113 -5 285 -12 383 -16 l177 -7 0 75 0 76 -127 7 c-71 4 -150 9 -178 11
-27 2 -140 6 -250 9 -269 6 -655 31 -667 43 -19 19 11 21 198 12 104 -5 349
-16 544 -25 195 -8 383 -17 418 -21 l62 -6 0 169 0 169 -297 18 c-164 10 -310
19 -325 20 -14 0 -30 4 -34 8 -10 10 370 -1 421 -12 22 -5 84 -9 138 -9 l97
-1 0 40 0 40 -49 0 c-27 0 -132 7 -233 15 -101 8 -383 28 -628 45 -245 17
-452 32 -460 33 -12 2 -15 -11 -16 -58 -2 -96 -3 -107 -14 -100 -5 3 -10 14
-10 23 0 22 -113 157 -155 185 -18 12 -57 41 -86 63 -72 55 -257 138 -344 154
-38 8 -83 20 -100 29 -20 10 -62 15 -125 16 -52 1 -116 5 -142 9 -42 7 -48 6
-48 -9z m1365 -435 c-3 -5 -12 -10 -18 -10 -7 0 -6 4 3 10 19 12 23 12 15 0z
m275 -21 c10 -6 5 -8 -15 -5 -16 2 -38 5 -48 5 -10 1 -15 6 -12 11 6 10 49 4
75 -11z m96 -2 c4 -4 -7 -7 -24 -7 -18 0 -32 5 -32 10 0 11 45 9 56 -3z m419
-442 c65 -13 57 -14 -135 -8 -113 3 -214 9 -225 14 -35 14 286 8 360 -6z
m-532 -512 c-7 -2 -19 -2 -25 0 -7 3 -2 5 12 5 14 0 19 -2 13 -5z"/>
<path d="M2723 4376 c-24 -14 -43 -23 -43 -21 0 2 -13 0 -28 -6 -36 -12 -82
-55 -82 -76 0 -13 5 -12 25 7 30 28 87 50 134 50 54 0 145 -28 211 -65 41 -23
75 -35 100 -35 22 0 42 -4 45 -10 8 -12 52 -13 59 -1 11 17 -15 67 -45 85 -16
9 -61 26 -100 37 -39 11 -83 26 -98 33 -14 8 -51 17 -81 20 -47 6 -61 3 -97
-18z"/>
<path d="M3650 4221 c-58 -3 -111 -10 -117 -14 -7 -5 -13 -19 -13 -33 0 -13
-4 -24 -10 -24 -22 0 -8 -17 24 -28 25 -9 46 -10 82 -2 122 28 197 31 256 13
55 -17 67 -28 82 -75 6 -21 26 -24 26 -5 0 50 -93 138 -169 161 -30 9 -55 15
-55 14 -1 -1 -48 -4 -106 -7z"/>
<path d="M2097 4183 c-13 -13 -7 -32 11 -32 9 1 27 -2 40 -6 24 -8 30 6 10 23
-19 14 -53 23 -61 15z"/>
<path d="M2735 4181 c-43 -9 -95 -39 -95 -55 0 -9 17 -16 45 -21 25 -3 69 -14
98 -24 29 -10 69 -21 90 -25 33 -6 38 -4 49 19 14 31 29 32 65 0 l28 -24 -34
-1 c-52 0 -25 -18 34 -22 43 -3 50 -1 48 15 -1 15 4 17 24 12 22 -5 24 -3 18
17 -19 61 -112 104 -230 106 -33 1 -71 3 -85 6 -14 2 -38 1 -55 -3z"/>
<path d="M3440 4170 c0 -5 5 -10 10 -10 6 0 10 5 10 10 0 6 -4 10 -10 10 -5 0
-10 -4 -10 -10z"/>
<path d="M3468 4029 c-47 -46 -34 -70 44 -82 21 -3 40 -1 43 4 4 5 -3 9 -14 9
-28 0 -27 16 1 23 27 7 38 1 38 -22 0 -14 12 -22 44 -30 58 -14 106 -14 106 1
0 7 5 5 13 -5 6 -9 30 -18 52 -21 22 -2 52 -7 68 -11 33 -9 33 -2 4 50 -25 44
-96 87 -135 81 -12 -2 -25 1 -28 5 -3 5 -18 9 -34 9 -16 0 -32 5 -35 10 -4 7
-35 10 -73 9 -58 -2 -70 -6 -94 -30z"/>
<path d="M4166 3865 c-19 -15 -19 -15 2 -15 12 0 25 0 28 1 4 0 11 -5 15 -13
7 -10 9 -10 9 3 0 15 -19 39 -29 39 -4 0 -15 -7 -25 -15z"/>
<path d="M4042 3795 c0 -16 2 -22 5 -12 2 9 2 23 0 30 -3 6 -5 -1 -5 -18z"/>
<path d="M2985 3540 c-3 -6 -2 -17 3 -27 5 -9 7 -34 5 -55 -4 -26 -2 -38 6
-38 7 0 9 -4 6 -10 -3 -5 2 -10 12 -10 10 0 28 -6 39 -14 26 -18 159 -46 222
-46 26 0 53 -5 58 -10 11 -11 110 -20 119 -12 7 8 -16 32 -25 27 -5 -3 -18 11
-30 31 l-22 35 21 23 22 23 -25 17 c-28 18 -91 21 -131 6 -21 -8 -37 -6 -73
10 -25 12 -54 28 -64 37 -12 11 -28 14 -53 10 -20 -3 -47 -2 -60 3 -15 6 -27
6 -30 0z"/>
<path d="M2762 3438 c-7 -7 -12 -29 -12 -51 0 -34 4 -40 30 -50 17 -6 30 -15
30 -19 0 -4 16 -26 36 -48 43 -48 71 -52 76 -12 2 21 8 26 23 24 11 -2 29 -3
40 -3 11 1 29 -3 40 -8 40 -17 111 -33 165 -36 70 -5 101 -9 123 -18 9 -4 24
-9 33 -12 13 -4 14 -8 4 -20 -9 -11 -16 -12 -25 -5 -9 8 -14 6 -18 -4 -11 -28
18 -39 75 -27 84 18 133 42 156 77 l21 33 -30 25 c-17 14 -34 26 -39 26 -11 0
-21 -45 -14 -64 5 -14 2 -14 -32 -2 -22 7 -86 14 -144 14 -57 1 -111 4 -120 7
-9 3 -34 7 -55 9 -22 2 -53 11 -70 20 -16 9 -38 16 -47 16 -10 0 -41 9 -70 20
-29 11 -65 20 -79 20 -40 0 -55 24 -35 55 9 13 16 29 16 35 0 14 -63 13 -78
-2z"/>
<path d="M2502 3338 c-14 -14 -16 -48 -4 -48 12 0 33 48 23 54 -4 3 -13 0 -19
-6z"/>
<path d="M2962 3209 c2 -7 10 -15 17 -17 8 -3 12 1 9 9 -2 7 -10 15 -17 17 -8
3 -12 -1 -9 -9z"/>
<path d="M2012 3009 c-20 -6 -68 -42 -115 -88 -148 -139 -178 -165 -260 -224
-45 -32 -91 -66 -102 -76 -28 -25 -158 -73 -310 -116 -71 -20 -251 -76 -400
-125 -148 -50 -394 -130 -545 -179 l-275 -88 -3 -1057 -2 -1056 1325 0 c729 0
1325 1 1325 3 0 2 -17 48 -39 103 -103 266 -320 980 -321 1056 0 14 -13 60
-30 101 -55 138 -122 402 -170 672 -12 66 -32 163 -45 216 -42 172 -75 415
-75 548 0 62 9 83 98 227 28 47 52 87 52 90 0 7 -74 2 -108 -7z"/>
<path d="M5124 2814 c9 -8 21 -25 27 -36 6 -11 13 -17 16 -15 8 9 -30 67 -45
67 -10 0 -10 -4 2 -16z"/>
<path d="M5204 2679 c2 -17 14 -40 25 -50 24 -23 31 -24 31 -4 0 8 -4 15 -9
15 -5 0 -16 16 -25 35 -21 43 -29 45 -22 4z"/>
<path d="M3616 2592 c10 -195 0 -170 102 -272 51 -50 92 -94 92 -98 0 -4 -4
-2 -8 3 -4 6 -22 21 -40 34 l-32 23 25 -48 c14 -27 23 -54 20 -62 -3 -9 16
-34 50 -64 30 -28 55 -57 55 -65 0 -11 10 -12 48 -7 44 6 52 3 75 -20 20 -20
27 -37 27 -65 0 -31 5 -40 28 -52 15 -8 45 -31 67 -51 22 -21 50 -38 62 -38
28 0 31 -17 32 -209 1 -213 16 -381 47 -545 25 -134 25 -142 10 -205 -8 -36
-20 -92 -25 -124 -13 -74 -24 -93 -77 -143 -50 -48 -58 -69 -19 -54 31 12 31
6 10 -140 -18 -117 -20 -123 -85 -205 -43 -55 -105 -141 -124 -172 -6 -10 142
-13 723 -13 l731 0 0 851 0 851 -25 -16 c-13 -9 -31 -16 -40 -16 -8 0 -15 -4
-15 -10 0 -5 -7 -10 -15 -10 -8 0 -19 -8 -24 -19 -6 -10 -22 -22 -36 -25 -14
-4 -25 -11 -25 -17 0 -5 -19 -18 -42 -29 -24 -10 -71 -35 -105 -55 -38 -22
-64 -31 -68 -25 -4 6 -20 52 -36 102 -16 50 -45 116 -64 147 -19 31 -35 60
-35 65 0 20 -111 176 -141 198 -19 13 -68 37 -109 53 -41 15 -102 44 -135 65
-95 59 -141 80 -263 120 -97 32 -121 44 -161 82 -59 56 -172 148 -332 271
l-127 96 4 -87z"/>
<path d="M3468 2379 c-20 -35 -65 -95 -99 -133 -63 -68 -63 -68 -24 -48 57 29
99 77 135 154 42 90 33 109 -12 27z"/>
<path d="M2595 2096 c-128 -50 -152 -61 -154 -70 -1 -5 31 -22 71 -38 68 -26
83 -37 188 -145 163 -167 228 -247 236 -289 4 -20 2 -75 -5 -122 -6 -48 -16
-136 -21 -197 -6 -60 -17 -164 -25 -230 -7 -66 -16 -145 -20 -175 -25 -242
-80 -605 -121 -797 l-6 -33 281 0 c154 0 281 3 281 7 0 3 9 76 20 162 30 240
50 512 57 782 5 223 4 260 -17 408 -20 142 -22 170 -11 210 11 39 81 350 81
359 0 2 25 1 55 -2 30 -3 55 -2 55 3 0 4 -26 33 -58 64 -67 64 -124 87 -169
69 -74 -29 -154 -41 -275 -41 -71 0 -132 -2 -136 -5 -4 -2 -23 3 -41 11 -23
12 -29 18 -19 24 9 6 7 9 -8 9 -12 0 -29 12 -39 27 -16 24 -20 25 -28 11 -10
-14 -14 -14 -55 3 -53 23 -43 23 -117 -5z"/>
<path d="M5267 1734 c-12 -12 -7 -58 7 -77 20 -26 36 -1 27 42 -6 34 -21 48
-34 35z"/>
<path d="M5052 1608 c-29 -5 -50 -14 -47 -18 3 -5 19 -7 34 -4 16 4 32 1 35
-5 5 -8 16 -6 34 7 15 11 34 22 42 25 24 9 -40 6 -98 -5z"/>
</g>
</svg>
